**ABCDEFGHIJKLMNOPQRSTUVWXYZabcdefghijklmnopqrstuvwxyz**************************
**PARASOLID !"#$%&'()*+,-./:;<=>?@[\]^_`{|}~0123456789**************************
**PART1;
MC=x86;
MC_MODEL=x86 Family 15 Model 6 Stepping 5, GenuineIntel;
MC_ID=unknown;
OS=Windows_NT;
OS_RELEASE=unknown;
FRU=Parasolid Version 17.1, build 244,  6- 8-2006;
APPL=SolidWorks 2007-2006198;
SITE=;
USER=unknown;
FORMAT=text;
GUISE=transmit;
KEY=LED 3mm RED;
FILE=LED 3mm RED.x_t;
DATE=Sat Mar 16 13:20:57 2013;
**PART2;
SCH=SCH_1701244_17106;
USFLD_SIZE=0;
**PART3;
**END_OF_HEADER*****************************************************************
T51 : TRANSMIT FILE created by modeller version 170124423 SCH_1701244_17106_1300
6186 0 12 255 1 976 2 3 0 0 0 0 1e3 1e-8 0 4 0 1 0 1 1 5 6 7 8 9 10 11 81 255 2
 2 799 12 1 0 0 0 0 13 0 70 11 CI9 list_type0 0 1 uI10 notransmit0 0 1 lCCCDCCDI
12 finger_index0 0 1 dI12 finger_block1012 0 CZ3 0 4 T1 0 0 3 20 1 14 14 13 255
 5 35 0 1 0 15 0 0 16 0 50 255 6 76 0 15 17 0 0 +0 -107153055959458e-33 0 0 1 0
 0 0 1 30 255 7 119 0 10 18 0 0 +.00158113883008419 5e-4 0 0 0 -1 29 255 8 445 0
 11 19 0 -5e-4 -107153055959458e-33 -499999999999993e-19 19 255 9 39 0 1 16 0 20
 V16 255 10 117 0 ?21 0 22 7 0 0 1 18 255 11 443 0 23 0 24 8 ?1 17 255 23 0 25 2
6 27 11 28 29 0 30 -18 24 439 0 27 11 31 19 ?1 17 27 0 25 23 32 24 33 34 0 28 -1
8 31 435 0 32 24 35 36 ?1 29 19 441 0 24 36 8 -5e-4 0 499999999999993e-19 29 36
 437 0 31 37 19 -6e-4 -107153055959458e-33 15e-5 29 37 433 0 35 38 36 -9e-4 0 15
e-5 18 35 431 0 39 31 40 37 ?1 29 38 429 0 40 41 37 -.001 -107153055959458e-33 4
99999999999993e-19 18 40 427 0 42 35 43 38 ?1 29 41 425 0 43 44 38 -.001 0 -4999
99999999993e-19 18 43 423 0 45 40 46 41 ?1 29 44 418 0 46 47 41 -9e-4 -107153055
959458e-33 -15e-5 18 46 416 0 48 43 49 44 ?1 29 47 244 0 49 50 44 8e-4 -10715305
5959458e-33 15e-5 18 49 242 0 51 46 52 47 ?1 29 50 240 0 52 53 47 6e-4 0 15e-5 1
8 52 238 0 54 49 55 50 ?1 29 53 236 0 55 56 50 5e-4 -107153055959458e-33 4999999
99999993e-19 18 55 234 0 57 52 58 53 ?1 29 56 232 0 58 59 53 5e-4 0 -49999999999
9993e-19 18 58 230 0 60 55 61 56 ?1 29 59 228 0 61 62 56 6e-4 -107153055959458e-
33 -15e-5 18 61 226 0 63 58 64 59 ?1 29 62 224 0 64 65 59 8e-4 0 -15e-5 18 64 22
2 0 66 61 67 62 ?1 29 65 217 0 67 68 62 9e-4 -107153055959458e-33 -4999999999999
93e-19 18 67 215 0 69 64 70 65 ?1 29 68 113 0 70 71 65 .00158113883008419 5e-4 -
75e-5 18 70 112 0 72 67 73 68 ?1 29 71 200 0 73 74 68 .00158113883008419 5e-4 75
e-5 18 73 158 0 75 70 76 71 ?1 29 74 201 0 76 77 71 .00158113883008419 0 -75e-5
 18 76 160 0 78 73 79 74 ?1 29 77 202 0 79 80 74 .00158113883008419 0 75e-5 18 7
9 159 0 81 76 82 77 ?1 29 80 399 0 83 84 77 9e-4 0 499999999999993e-19 18 83 316
 0 85 86 87 80 ?1 29 84 407 0 82 88 80 9e-4 -.002 499999999999993e-19 18 82 323
 0 89 79 90 84 ?1 29 88 408 0 90 91 84 9e-4 -.002 -499999999999993e-19 18 90 322
 0 92 82 93 88 ?1 29 91 409 0 93 94 88 8e-4 -.002 -15e-5 18 93 321 0 95 90 96 91
 ?1 29 94 410 0 96 97 91 6e-4 -.002 -15e-5 18 96 320 0 98 93 99 94 ?1 29 97 411
 0 99 100 94 5e-4 -.002 -499999999999993e-19 18 99 319 0 101 96 102 97 ?1 29 100
 412 0 102 103 97 5e-4 -.002 499999999999993e-19 18 102 318 0 104 99 105 100 ?1
 29 103 413 0 105 106 100 6e-4 -.002 15e-5 18 105 317 0 107 102 86 103 ?1 29 106
 414 0 86 108 103 8e-4 -.002 15e-5 18 86 310 0 109 105 83 106 ?1 29 108 600 0 11
0 111 106 -6e-4 0 -15e-5 18 110 517 0 26 112 0 108 ?1 29 111 608 0 87 113 108 -6
e-4 -.002 -15e-5 18 87 524 0 114 83 115 111 ?1 29 113 609 0 115 116 111 -9e-4 -.
002 -15e-5 18 115 523 0 117 87 118 113 ?1 29 116 610 0 118 119 113 -.001 -.002 -
499999999999993e-19 18 118 522 0 120 115 121 116 ?1 29 119 611 0 121 122 116 -.0
01 -.002 499999999999993e-19 18 121 521 0 123 118 124 119 ?1 29 122 612 0 124 12
5 119 -9e-4 -.002 15e-5 18 124 520 0 126 121 127 122 ?1 29 125 613 0 127 128 122
 -6e-4 -.002 15e-5 18 127 519 0 129 124 130 125 ?1 29 128 614 0 130 131 125 -5e-
4 -.002 499999999999993e-19 18 130 518 0 132 127 112 128 ?1 29 131 615 0 112 0 1
28 -5e-4 -.002 -499999999999993e-19 18 112 511 0 133 130 110 131 ?1 17 133 0 134
 30 135 112 132 136 0 137 -15 255 134 533 0 28 138 0 17 30 0 134 28 133 11 139 1
40 0 141 +17 135 0 134 133 28 130 142 143 0 144 -17 132 0 145 129 137 130 133 13
6 0 135 +16 136 489 0 ?132 146 147 148 0 0 1 17 137 0 145 132 114 112 149 147 0
 139 +15 145 560 0 137 150 0 17 114 0 145 137 117 87 151 152 0 153 +17 149 0 154
 155 139 87 137 147 0 0 -16 147 486 0 ?137 136 156 157 0 0 1 17 139 0 154 149 14
1 112 30 140 0 0 -15 154 529 0 141 158 0 17 141 0 154 139 155 11 26 159 0 0 +16
 140 461 0 ?30 160 143 161 0 0 1 16 160 253 0 ?162 163 140 164 0 0 1 16 143 465
 0 ?142 140 165 166 0 0 1 30 161 576 0 140 166 167 0 +-5e-4 -.002 -4999999999999
93e-19 0 1 0 30 166 577 0 143 168 161 0 +-5e-4 -.002 499999999999993e-19 0 1 0 3
1 255 167 398 0 169 161 170 0 +8e-4 -.002 5e-5 0 -1 0 0 0 1 1e-4 16 169 285 0 ?1
71 172 173 167 0 0 1 30 170 397 0 172 167 174 0 +6e-4 -.002 15e-5 -1 0 0 16 172
 288 0 ?107 175 169 170 0 0 1 31 174 396 0 175 170 176 0 +6e-4 -.002 5e-5 0 -1 0
 0 0 -1 1e-4 16 175 291 0 ?104 177 172 174 0 0 1 30 176 395 0 177 174 178 0 +5e-
4 -.002 499999999999993e-19 0 0 -1 16 177 294 0 ?101 179 175 176 0 0 1 31 178 39
4 0 179 176 180 0 +6e-4 -.002 -5e-5 0 -1 0 0 0 -1 1e-4 16 179 297 0 ?98 181 177
 178 0 0 1 30 180 393 0 181 178 182 0 +6e-4 -.002 -15e-5 1 0 0 16 181 300 0 ?95
 183 179 180 0 0 1 31 182 392 0 183 180 184 0 +8e-4 -.002 -5e-5 0 -1 0 0 0 -1 1e
-4 16 183 303 0 ?92 185 181 182 0 0 1 30 184 391 0 185 182 164 0 +9e-4 -.002 499
999999999993e-19 0 0 1 16 185 306 0 ?89 186 183 184 0 0 1 31 164 390 0 160 184 1
87 0 +8e-4 0 5e-5 0 -1 0 0 0 1 1e-4 30 187 389 0 163 164 188 0 +6e-4 0 15e-5 -1
 0 0 16 163 257 0 ?189 190 160 187 0 0 1 31 188 388 0 190 187 191 0 +6e-4 0 5e-5
 0 -1 0 0 0 -1 1e-4 16 190 261 0 ?192 193 163 188 0 0 1 30 191 387 0 193 188 194
 0 +5e-4 0 499999999999993e-19 0 0 -1 16 193 265 0 ?195 196 190 191 0 0 1 31 194
 386 0 196 191 197 0 +6e-4 0 -5e-5 0 -1 0 0 0 -1 1e-4 16 196 269 0 ?198 199 193
 194 0 0 1 30 197 385 0 199 194 200 0 +6e-4 0 -15e-5 1 0 0 16 199 273 0 ?201 202
 196 197 0 0 1 31 200 384 0 202 197 203 0 +8e-4 0 -5e-5 0 -1 0 0 0 -1 1e-4 16 20
2 277 0 ?204 173 199 200 0 0 1 30 203 383 0 173 200 205 0 +9e-4 0 49999999999999
3e-19 0 0 1 16 173 281 0 ?206 169 202 203 0 0 1 30 205 382 0 186 203 207 0 +9e-4
 -.002 499999999999993e-19 0 1 0 16 186 256 0 ?208 209 185 205 0 0 1 30 207 381
 0 209 205 210 0 +9e-4 -.002 -499999999999993e-19 0 1 0 16 209 284 0 ?211 212 18
6 207 0 0 1 30 210 380 0 212 207 213 0 +8e-4 -.002 -15e-5 0 1 0 16 212 280 0 ?21
4 215 209 210 0 0 1 30 213 379 0 215 210 216 0 +6e-4 -.002 -15e-5 0 1 0 16 215 2
76 0 ?217 218 212 213 0 0 1 30 216 378 0 218 213 219 0 +5e-4 -.002 -499999999999
993e-19 0 1 0 16 218 272 0 ?220 221 215 216 0 0 1 30 219 377 0 221 216 222 0 +5e
-4 -.002 499999999999993e-19 0 1 0 16 221 268 0 ?223 224 218 219 0 0 1 30 222 37
6 0 224 219 225 0 +6e-4 -.002 15e-5 0 1 0 16 224 264 0 ?226 227 221 222 0 0 1 30
 225 375 0 227 222 228 0 +8e-4 -.002 15e-5 0 1 0 16 227 260 0 ?229 230 224 225 0
 0 1 30 228 195 0 230 225 231 0 +.00158113883008419 0 -75e-5 0 0 -1 16 230 155 0
 ?78 232 227 228 0 0 1 30 231 194 0 233 228 234 0 +.00158113883008419 .001 -75e-
5 0 -1 0 16 233 143 0 ?235 236 232 231 0 0 1 30 234 193 0 232 231 237 0 +.001581
13883008419 .001 75e-5 0 -1 0 16 232 141 0 ?81 233 230 234 0 0 1 31 237 77 0 236
 234 238 0 +0 .003 0 0 -1 0 0 0 -1 .0015 16 236 43 0 ?239 240 233 237 0 0 1 31 2
38 78 0 240 237 241 0 +0 5e-4 0 0 -1 0 0 0 -1 .0015 16 240 48 0 ?242 243 236 238
 0 0 1 31 241 79 0 243 238 18 0 +0 5e-4 0 0 -1 0 0 0 -1 .00175 16 243 115 0 ?244
 22 240 241 0 0 1 31 18 80 0 22 241 7 0 +0 -214306111918916e-33 0 0 -1 0 0 0 -1
 .00175 16 22 125 0 ?245 10 243 18 0 0 1 17 245 0 246 247 247 76 248 22 0 0 +15
 246 65 0 245 15 25 17 247 0 246 245 245 79 78 230 0 248 -17 248 0 249 250 235 7
9 245 22 0 0 -15 249 92 0 244 251 0 17 250 0 249 244 248 73 81 232 0 252 -17 235
 0 249 248 244 76 72 233 0 245 +17 244 0 249 235 250 70 252 243 0 0 +17 72 0 253
 75 78 70 235 233 0 21 -15 253 171 0 81 254 0 17 75 0 253 81 72 73 21 10 0 250 -
17 78 0 253 72 81 76 247 230 0 235 +17 21 0 255 252 252 70 75 10 0 244 +15 255 9
3 0 252 256 257 17 252 0 255 21 21 73 244 243 0 0 -14 255 256 56 258 ?259 251 25
5 5 260 -0 0 259 251 20 15 257 55 0 242 256 0 17 242 0 257 242 242 0 261 240 0 0
 +17 261 0 262 261 261 0 242 240 0 0 -15 262 94 0 261 259 263 14 259 51 264 ?265
 256 262 5 266 -0 0 265 256 20 15 263 50 0 239 259 0 17 239 0 263 239 239 0 267
 236 0 0 +17 267 0 268 267 267 0 239 236 0 0 -15 268 95 0 267 265 0 14 265 46 26
9 ?254 259 268 5 270 -0 0 254 259 20 81 1 269 955 271 265 272 0 264 273 274 14 2
54 168 273 ?275 265 253 5 276 -0 0 275 265 20 53 255 270 72 0 265 276 266 0 --21
6840434497101e-32 .003 0 .0015 0 -1 0 1 0 0 13 20 38 0 0 0 0 0 0 9 15 14 15 450
 277 ?251 0 278 5 6 -0 0 251 0 20 81 1 277 957 271 15 279 0 273 280 281 14 251 6
1 280 ?256 15 249 5 17 -0 0 256 15 20 15 278 247 0 85 15 246 17 85 0 278 69 51 8
3 162 160 0 206 -17 69 0 278 66 85 67 206 173 0 204 -17 51 0 278 85 54 49 189 16
3 0 229 -17 162 0 282 283 208 49 85 160 0 0 +17 206 0 284 285 211 83 69 173 0 20
8 +15 284 356 0 206 286 0 17 285 0 284 287 206 82 208 186 0 288 -17 211 0 284 20
6 287 67 289 209 0 0 +17 208 0 282 162 288 83 285 186 0 0 +15 282 328 0 162 275
 0 17 288 0 282 208 283 82 171 169 0 0 -17 283 0 282 288 162 86 229 227 0 0 -17
 171 0 290 107 89 86 288 169 0 283 +15 290 359 0 171 291 0 17 107 0 290 104 171
 105 109 172 0 292 +17 89 0 290 171 92 82 287 185 0 285 +17 92 0 290 89 95 90 29
3 183 0 289 +17 287 0 284 211 285 90 89 185 0 0 -17 95 0 290 92 98 93 294 181 0
 295 +17 293 0 296 214 289 93 92 183 0 0 -17 289 0 296 293 204 90 211 209 0 287
 -15 296 352 0 204 297 0 17 204 0 296 289 214 67 66 202 0 211 +17 214 0 296 204
 293 64 295 212 0 0 +17 66 0 278 63 69 64 204 202 0 201 -17 63 0 278 60 66 61 20
1 199 0 198 -17 201 0 298 295 217 64 63 199 0 214 +15 298 348 0 201 299 0 17 295
 0 298 294 201 93 214 212 0 293 -17 217 0 298 201 294 61 300 215 0 0 +17 294 0 2
98 217 295 96 95 181 0 0 -17 300 0 301 302 198 96 217 215 0 294 -15 301 344 0 19
8 303 0 17 302 0 301 220 300 99 98 179 0 0 -17 198 0 301 300 220 61 60 196 0 217
 +17 220 0 301 198 302 58 304 218 0 0 +17 60 0 278 57 63 58 198 196 0 195 -17 57
 0 278 54 60 55 195 193 0 192 -17 195 0 305 304 223 58 57 193 0 220 +15 305 340
 0 195 306 0 17 304 0 305 307 195 99 220 218 0 302 -17 223 0 305 195 307 55 308
 221 0 0 +17 307 0 305 223 304 102 101 177 0 0 -17 308 0 309 310 192 102 223 221
 0 307 -15 309 336 0 192 311 0 17 310 0 309 226 308 105 104 175 0 0 -17 192 0 30
9 308 226 55 54 190 0 223 +17 226 0 309 192 310 52 292 224 0 0 +17 54 0 278 51 5
7 52 192 190 0 189 -17 189 0 312 292 229 52 51 163 0 226 +15 312 332 0 189 313 0
 17 292 0 312 109 189 105 226 224 0 310 -17 229 0 312 189 109 49 283 227 0 162 +
17 109 0 312 229 292 86 107 172 0 171 -14 313 329 314 ?311 275 312 5 315 -0 0 31
1 275 20 81 1 314 959 271 313 316 0 280 317 318 14 311 333 317 ?306 313 309 5 31
9 -0 0 306 313 20 14 275 325 320 ?313 254 282 5 321 -0 0 313 254 20 50 315 366 0
 313 319 321 0 +6e-4 -.002 15e-5 0 0 -1 -1 0 0 51 255 319 367 0 311 322 315 0 -6
e-4 -.002 5e-5 0 1 0 1e-4 0 0 1 51 321 365 0 275 315 276 0 -8e-4 -.002 5e-5 0 1
 0 1e-4 0 0 1 50 276 189 0 254 321 270 0 +.00158113883008419 .001 -75e-5 -1 0 0
 0 0 1 50 322 368 0 306 323 319 0 +5e-4 -.002 499999999999993e-19 1 0 0 0 0 -1 1
4 306 337 324 ?303 311 305 5 322 -0 0 303 311 20 51 323 369 0 303 325 322 0 -6e-
4 -.002 -5e-5 0 1 0 1e-4 0 0 1 14 303 341 326 ?299 306 301 5 323 -0 0 299 306 20
 50 325 370 0 299 327 323 0 +6e-4 -.002 -15e-5 0 0 1 1 0 0 14 299 345 328 ?297 3
03 298 5 325 -0 0 297 303 20 51 327 371 0 297 329 325 0 -8e-4 -.002 -5e-5 0 1 0
 1e-4 0 0 1 14 297 349 330 ?286 299 296 5 327 -0 0 286 299 20 50 329 372 0 286 3
31 327 0 +9e-4 -.002 499999999999993e-19 -1 0 0 0 0 1 14 286 353 332 ?291 297 28
4 5 329 -0 0 291 297 20 50 331 374 0 291 333 329 0 +8e-4 -.002 5e-5 0 1 0 0 0 1
 14 291 357 334 ?158 286 290 5 331 -0 0 158 286 20 51 333 566 0 158 335 331 0 --
6e-4 -.002 -5e-5 0 1 0 1e-4 0 0 1 14 158 526 336 ?138 291 154 5 333 -0 0 138 291
 20 50 335 567 0 138 337 333 0 +-5e-4 -.002 499999999999993e-19 -1 0 0 0 0 1 14
 138 530 338 ?339 158 134 5 335 -0 0 339 158 20 51 337 568 0 339 340 335 0 --6e-
4 -.002 5e-5 0 1 0 1e-4 0 0 1 14 339 534 341 ?342 138 343 5 337 -0 0 342 138 20
 50 340 569 0 342 344 337 0 +-9e-4 -.002 15e-5 0 0 -1 -1 0 0 14 342 538 345 ?346
 339 347 5 340 -0 0 346 339 20 51 344 570 0 346 348 340 0 --9e-4 -.002 5e-5 0 1
 0 1e-4 0 0 1 14 346 542 349 ?350 342 351 5 344 -0 0 350 342 20 50 348 571 0 350
 352 344 0 +-.001 -.002 499999999999993e-19 1 0 0 0 0 -1 14 350 546 353 ?354 346
 355 5 348 -0 0 354 346 20 51 352 572 0 354 356 348 0 --9e-4 -.002 -5e-5 0 1 0 1
e-4 0 0 1 14 354 550 357 ?358 350 359 5 352 -0 0 358 350 20 50 356 573 0 358 360
 352 0 +-9e-4 -.002 -15e-5 0 0 1 1 0 0 14 358 554 361 ?150 354 362 5 356 -0 0 15
0 354 20 50 360 575 0 150 0 356 0 +-6e-4 -.002 -5e-5 0 -1 0 0 0 -1 14 150 558 36
3 ?0 358 145 5 360 +0 0 0 358 20 81 1 363 976 271 150 364 0 361 0 365 80 255 1 2
71 366 367 9000 1 1 1 1 1 1 1 1 0 FFFFTFTFFFFFFF1 81 1 364 904 368 150 0 363 369
 0 370 81 1 361 975 271 358 369 0 357 363 371 82 255 1 365 306577578 81 1 369 90
3 368 358 0 361 372 364 373 81 1 357 974 271 354 372 0 353 361 374 82 1 371 3186
36202 81 1 372 902 368 354 0 357 375 369 376 81 1 353 973 271 350 375 0 349 357
 377 82 1 374 318898346 81 1 375 901 368 350 0 353 378 372 379 81 1 349 972 271
 346 378 0 345 353 380 82 1 377 319160490 81 1 378 900 368 346 0 349 381 375 382
 81 1 345 971 271 342 381 0 341 349 383 82 1 380 319422634 81 1 381 899 368 342
 0 345 384 378 385 81 1 341 970 271 339 384 0 338 345 386 82 1 383 319684778 81
 1 384 898 368 339 0 341 387 381 388 81 1 338 969 271 138 387 0 336 341 389 82 1
 386 319946922 81 1 387 897 368 138 0 338 390 384 391 81 1 336 968 271 158 390 0
 334 338 392 82 1 389 320209066 81 1 390 896 368 158 0 336 393 387 394 81 1 334
 967 271 291 393 0 332 336 395 82 1 392 320471210 81 1 393 895 368 291 0 334 396
 390 397 81 1 332 966 271 286 396 0 330 334 398 82 1 395 285409450 81 1 396 894
 368 286 0 332 399 393 400 81 1 330 965 271 297 399 0 328 332 401 82 1 398 29746
8074 81 1 399 893 368 297 0 330 402 396 403 81 1 328 964 271 299 402 0 326 330 4
04 82 1 401 297730218 81 1 402 892 368 299 0 328 405 399 406 81 1 326 963 271 30
3 405 0 324 328 407 82 1 404 297992362 81 1 405 891 368 303 0 326 408 402 409 81
 1 324 962 271 306 408 0 320 326 410 82 1 407 298254506 81 1 408 890 368 306 0 3
24 411 405 412 81 1 320 961 271 275 413 0 317 324 414 82 1 410 298516650 81 1 41
3 887 368 275 0 320 415 316 416 81 1 317 960 271 311 411 0 314 320 417 82 1 414
 299303082 81 1 411 889 368 311 0 317 316 408 418 82 1 417 298778794 80 1 368 0
 419 8001 0 0 0 0 3 5 0 0 0 FFFFTFTFFFFFFF2 81 1 316 888 368 313 0 314 413 411 4
20 83 255 3 418 .796078431372549 .823529411764706 .937254901960784 83 3 420 .796
078431372549 .823529411764706 .937254901960784 79 255 15 419 SDL/TYSA_COLOUR81 1
 415 886 368 254 0 273 272 413 421 83 3 416 .796078431372549 .823529411764706 .9
37254901960784 81 1 273 956 271 254 415 0 269 277 422 81 1 272 885 368 265 0 269
 423 415 424 83 3 421 1 0 0 81 1 423 884 368 259 0 264 425 272 426 83 3 424 1 0
 0 81 1 264 954 271 259 423 0 258 269 427 81 1 425 883 368 256 0 258 428 423 429
 83 3 426 1 0 0 81 1 258 953 271 256 425 0 0 264 430 81 1 428 882 368 251 0 280
 279 425 431 83 3 429 1 0 0 81 1 280 958 271 251 428 0 277 314 432 81 1 279 881
 368 15 0 277 0 428 433 83 3 431 1 0 0 83 3 433 1 0 0 82 1 432 598540437 82 1 43
0 597950613 82 1 427 597360774 82 1 422 1884749973 83 3 412 .796078431372549 .82
3529411764706 .937254901960784 83 3 409 .796078431372549 .823529411764706 .93725
4901960784 83 3 406 .796078431372549 .823529411764706 .937254901960784 83 3 403
 .796078431372549 .823529411764706 .937254901960784 83 3 400 .796078431372549 .8
23529411764706 .937254901960784 83 3 397 .796078431372549 .823529411764706 .9372
54901960784 83 3 394 .796078431372549 .823529411764706 .937254901960784 83 3 391
 .796078431372549 .823529411764706 .937254901960784 83 3 388 .796078431372549 .8
23529411764706 .937254901960784 83 3 385 .796078431372549 .823529411764706 .9372
54901960784 83 3 382 .796078431372549 .823529411764706 .937254901960784 83 3 379
 .796078431372549 .823529411764706 .937254901960784 83 3 376 .796078431372549 .8
23529411764706 .937254901960784 83 3 373 .796078431372549 .823529411764706 .9372
54901960784 83 3 370 .796078431372549 .823529411764706 .937254901960784 79 14 36
7 SWEntUnchanged15 362 557 0 434 358 0 17 434 0 362 153 435 110 48 156 0 155 +17
 153 0 362 151 434 87 155 436 0 149 -17 435 0 362 434 151 46 437 438 0 0 +17 48
 0 25 45 26 46 434 156 0 439 -16 156 482 0 ?434 147 440 441 0 0 1 17 155 0 154 1
41 149 110 153 436 0 0 +16 436 457 0 ?155 438 152 442 0 0 1 16 438 485 0 ?435 44
3 436 444 0 0 1 16 152 507 0 ?114 436 445 446 0 0 1 30 442 583 0 436 441 444 0 +
-6e-4 -.002 -15e-5 0 1 0 30 441 584 0 156 447 442 0 +-9e-4 0 -15e-5 1 0 0 30 444
 582 0 438 442 448 0 +-9e-4 -.002 -15e-5 0 1 0 30 448 581 0 443 444 449 0 +-.001
 -.002 -499999999999993e-19 0 1 0 16 443 481 0 ?450 451 438 448 0 0 1 30 449 580
 0 451 448 452 0 +-.001 -.002 499999999999993e-19 0 1 0 16 451 477 0 ?453 454 44
3 449 0 0 1 30 452 579 0 454 449 168 0 +-9e-4 -.002 15e-5 0 1 0 16 454 473 0 ?45
5 165 451 452 0 0 1 30 168 578 0 165 452 166 0 +-6e-4 -.002 15e-5 0 1 0 16 165 4
69 0 ?456 143 454 168 0 0 1 17 456 0 347 457 458 31 459 165 0 0 +15 347 541 0 45
7 342 0 17 457 0 347 460 456 35 32 461 0 455 +17 458 0 347 456 460 127 126 462 0
 0 -17 459 0 343 144 33 127 456 165 0 458 -15 343 537 0 33 339 0 17 144 0 343 14
2 459 130 129 146 0 0 -17 33 0 343 459 142 31 27 34 0 456 +17 142 0 343 33 144 2
4 135 143 0 0 +16 34 462 0 ?33 461 29 463 0 0 1 16 461 466 0 ?457 464 34 465 0 0
 1 16 29 458 0 ?28 34 159 466 0 0 1 31 463 589 0 34 466 465 0 +-6e-4 0 5e-5 0 -1
 0 0 0 1 1e-4 30 466 590 0 29 467 463 0 +-5e-4 0 499999999999993e-19 0 0 1 30 46
5 588 0 461 463 468 0 +-9e-4 0 15e-5 -1 0 0 31 468 587 0 464 465 469 0 +-9e-4 0
 5e-5 0 -1 0 0 0 -1 1e-4 16 464 470 0 ?470 471 461 468 0 0 1 30 469 586 0 471 46
8 447 0 +-.001 0 499999999999993e-19 0 0 -1 16 471 474 0 ?472 440 464 469 0 0 1
 31 447 585 0 440 469 441 0 +-9e-4 0 -5e-5 0 -1 0 0 0 -1 1e-4 16 440 478 0 ?439
 156 471 447 0 0 1 17 439 0 359 437 450 46 45 440 0 435 +15 359 553 0 439 354 0
 17 437 0 359 473 439 115 435 438 0 151 -17 450 0 359 439 473 43 474 443 0 0 +17
 45 0 25 42 48 43 439 440 0 472 -15 25 448 0 26 15 0 17 42 0 25 39 45 40 472 471
 0 470 -17 472 0 355 474 453 43 42 471 0 450 +15 355 549 0 472 350 0 17 474 0 35
5 475 472 118 450 443 0 473 -17 453 0 355 472 475 40 476 451 0 0 +17 475 0 355 4
53 474 121 120 477 0 0 -17 476 0 351 478 470 121 453 451 0 475 -15 351 545 0 470
 346 0 17 478 0 351 455 476 124 123 479 0 0 -17 470 0 351 476 455 40 39 464 0 45
3 +17 455 0 351 470 478 35 460 454 0 0 +17 39 0 25 32 42 35 470 464 0 457 -17 32
 0 25 27 39 31 457 461 0 33 -17 460 0 347 458 457 124 455 454 0 478 -17 123 0 14
5 120 126 121 478 479 0 476 +16 479 498 0 ?123 477 462 480 0 0 1 16 477 501 0 ?1
20 445 479 481 0 0 1 16 462 495 0 ?126 479 146 482 0 0 1 31 480 595 0 479 482 48
1 0 +-9e-4 -.002 5e-5 0 -1 0 0 0 -1 1e-4 30 482 596 0 462 483 480 0 +-9e-4 -.002
 15e-5 -1 0 0 30 481 594 0 477 480 484 0 +-.001 -.002 499999999999993e-19 0 0 -1
 31 484 593 0 445 481 446 0 +-9e-4 -.002 -5e-5 0 -1 0 0 0 -1 1e-4 16 445 504 0 ?
117 152 477 484 0 0 1 30 446 592 0 152 484 467 0 +-9e-4 -.002 -15e-5 1 0 0 31 46
7 591 0 159 446 466 0 +-6e-4 0 -5e-5 0 -1 0 0 0 -1 1e-4 16 159 454 0 ?141 29 0 4
67 0 0 1 17 117 0 145 114 120 115 473 445 0 437 +17 120 0 145 117 123 118 475 47
7 0 474 +17 473 0 359 450 437 118 117 445 0 0 -31 483 597 0 146 148 482 0 +-6e-4
 -.002 5e-5 0 -1 0 0 0 1 1e-4 16 146 492 0 ?129 462 136 483 0 0 1 30 148 598 0 1
36 157 483 0 +-5e-4 -.002 499999999999993e-19 0 0 1 31 157 599 0 147 0 148 0 +-6
e-4 -.002 -5e-5 0 -1 0 0 0 -1 1e-4 17 129 0 145 126 132 127 144 146 0 459 +17 12
6 0 145 123 129 124 458 462 0 460 +17 26 0 25 48 23 110 141 159 0 434 -17 151 0
 362 435 153 115 114 152 0 0 -17 28 0 134 135 30 24 23 29 0 142 +82 1 318 299040
938 17 104 0 290 101 107 102 310 175 0 308 +17 101 0 290 98 104 99 307 177 0 304
 +17 98 0 290 95 101 96 302 179 0 300 +51 17 75 0 251 260 6 0 -0 0 0 0 -1 0 .001
75 0 0 -1 50 260 74 0 256 266 17 0 +-.00175 5e-4 0 0 -1 0 0 0 -1 51 266 73 0 259
 270 260 0 -0 0 0 0 -1 0 .0015 0 0 -1 82 1 281 332136618 82 1 274 596770950 17 8
1 0 253 78 75 79 250 232 0 247 +19 16 34 0 1 0 9 5 S74 255 20 14 3 0 363 2 364 0
 0 0 0 0 0 0 0 0 0 0 0 0 0 0 0 0 80 2 12 485 486 8004 0 0 0 0 3 5 0 0 0 FFTFFFFF
FFFFFF2 3 83 1 13 1e3 79 16 486 SDL/TYSA_DENSITY1 0 
